# xmcd
#
# Track frame offsets:
# 150
# 19385
# 44511
# 61600
# 94334
# 108077
# 133605
# 155271
# 177879
# 178921
# 198467
#
# Disc length: 2869 seconds
#
# Revision: 1
# Processed by: cddbd v1.5.2PL0 Copyright (c) Steve Scherf et al.
# Submitted via: CedeCatalogueitor 2.6.0.6 http://personales.ya.com/cdcatalogueitor
#
DISCID=910b330b
DTITLE=Thunderstone - Evolution 4.0
DYEAR=2007
DGENRE=
TTITLE0=D
TTITLE1=S
TTITLE2=S
TTITLE3=D
TTITLE4=F
TTITLE5=G
TTITLE6=R
TTITLE7=S
TTITLE8=A
TTITLE9=E
TTITLE10=Tgsrtgg
EXTD=
EXTT0=
EXTT1=
EXTT2=
EXTT3=
EXTT4=
EXTT5=
EXTT6=
EXTT7=
EXTT8=
EXTT9=
EXTT10=
PLAYORDER=
